<?xml version="1.0" standalone="no"?>
<!DOCTYPE svg PUBLIC "-//W3C//DTD SVG 20010904//EN"
 "http://www.w3.org/TR/2001/REC-SVG-20010904/DTD/svg10.dtd">
<svg version="1.0" xmlns="http://www.w3.org/2000/svg"
 width="512.000000pt" height="512.000000pt" viewBox="0 0 512.000000 512.000000"
 preserveAspectRatio="xMidYMid meet">

<g transform="translate(0.000000,512.000000) scale(0.100000,-0.100000)"
fill="#000000" stroke="none">
<path d="M3477 4758 c-20 -5 -59 -30 -86 -54 -72 -65 -81 -99 -81 -310 l0
-173 -47 20 c-225 96 -631 150 -908 120 -613 -67 -1137 -382 -1478 -890 -32
-47 -57 -88 -57 -93 0 -4 -135 -8 -301 -8 -189 0 -317 -4 -345 -11 -28 -7 -63
-28 -93 -55 -70 -63 -81 -102 -81 -290 0 -133 2 -155 19 -175 26 -32 86 -32
112 0 17 20 19 42 19 173 l0 150 29 29 29 29 697 0 697 0 29 -29 29 -29 0
-452 c0 -288 -4 -458 -10 -470 -19 -35 -53 -45 -169 -50 -110 -5 -115 -6 -134
-32 l-21 -27 28 -132 c15 -72 25 -134 22 -136 -2 -3 -150 70 -329 161 l-324
166 -242 0 c-257 0 -298 6 -320 48 -7 12 -11 82 -11 170 0 136 -2 152 -21 176
-28 36 -80 36 -108 0 -19 -24 -21 -40 -21 -182 0 -178 8 -216 62 -276 61 -70
94 -79 313 -84 l190 -4 23 -106 c50 -229 152 -473 275 -661 251 -382 632 -676
1052 -814 216 -71 405 -101 635 -101 272 -1 325 14 318 91 -2 25 -11 42 -28
54 -23 17 -34 18 -155 7 -151 -13 -345 -1 -509 33 -281 58 -582 201 -802 382
l-63 52 67 8 c78 9 169 49 227 100 75 66 135 199 135 300 0 62 20 114 62 162
55 62 108 85 196 85 l72 0 0 -80 c0 -88 12 -127 55 -178 41 -49 99 -74 183
-80 58 -4 72 -8 68 -19 -4 -8 -6 -23 -6 -32 0 -15 -12 -19 -60 -24 -114 -12
-201 -72 -251 -172 -38 -78 -43 -161 -15 -245 26 -75 111 -160 183 -184 164
-55 323 14 396 171 18 39 22 65 21 133 l-1 85 247 128 248 127 28 -57 c38 -78
109 -147 192 -186 66 -31 70 -32 251 -37 l184 -5 -74 -59 c-156 -125 -345
-232 -531 -301 -101 -38 -118 -52 -118 -100 0 -32 19 -56 53 -68 27 -10 152
35 302 108 827 401 1276 1307 1094 2210 -29 144 -101 352 -168 486 l-57 117
75 36 76 36 245 3 c208 2 251 5 285 20 55 25 93 63 121 122 l24 50 0 466 c0
536 1 529 -81 603 -62 55 -104 66 -264 66 -120 0 -127 -1 -150 -25 -32 -31
-33 -74 -2 -103 22 -20 34 -22 156 -22 l133 0 29 -29 29 -29 0 -452 c0 -304
-4 -458 -11 -472 -22 -42 -63 -48 -320 -48 l-242 0 -324 -166 c-178 -91 -327
-164 -329 -161 -3 2 7 64 22 136 l28 132 -21 27 c-19 26 -24 27 -134 32 -116
5 -150 15 -169 50 -6 12 -10 182 -10 470 l0 452 29 29 29 29 421 0 420 0 20
26 c26 33 27 65 2 95 l-19 24 -424 2 c-259 1 -438 -3 -461 -9z m-690 -553
c145 -19 283 -53 416 -103 l102 -39 3 -160 2 -161 -187 -4 c-185 -3 -189 -4
-248 -32 -318 -156 -296 -624 35 -741 25 -9 82 -20 126 -25 166 -17 245 -99
257 -267 l5 -63 -526 0 c-488 0 -530 -2 -567 -19 -46 -21 -112 -89 -121 -126
l-6 -25 -134 0 -134 0 0 300 0 300 40 52 c159 210 87 506 -150 617 -50 23 -70
26 -224 31 l-170 5 70 56 c288 233 637 376 1004 412 95 10 302 5 407 -8z
m-1136 -643 c96 -50 149 -154 133 -260 l-7 -44 -36 35 c-75 73 -70 72 -429 75
l-322 3 32 47 c17 26 54 75 81 110 l50 62 223 0 222 0 53 -28z m1693 1 c36
-70 104 -108 210 -119 62 -6 67 -9 62 -28 -19 -82 -27 -150 -22 -180 13 -68
85 -126 157 -126 19 0 102 36 220 95 l189 95 59 -122 c139 -286 201 -575 188
-883 -17 -416 -156 -786 -416 -1107 l-46 -58 -223 0 c-131 0 -241 5 -267 11
-50 13 -127 74 -151 120 l-15 29 198 0 c178 0 203 3 243 21 103 46 141 112
148 251 l5 98 51 28 c267 151 262 557 -9 698 -42 22 -55 35 -59 58 -10 51 -53
104 -109 136 -50 29 -57 30 -174 30 -81 0 -124 4 -129 12 -4 6 -11 49 -15 96
-10 113 -48 190 -129 265 -71 66 -138 94 -254 106 -166 17 -259 109 -258 257
1 97 49 176 134 218 50 25 59 26 225 26 l172 0 15 -27z m357 -1129 l24 -26 0
-460 0 -460 -28 -24 c-28 -24 -28 -24 -279 -24 l-251 0 -329 -166 c-182 -91
-332 -163 -335 -160 -3 3 5 62 19 130 21 105 23 129 12 154 -16 38 -28 42
-145 42 -104 0 -150 13 -163 45 -3 9 -6 220 -6 469 0 443 0 454 21 480 l20 26
708 0 708 0 24 -26z m-1636 -399 l0 -250 -91 -6 c-72 -4 -104 -12 -155 -36
-134 -62 -214 -182 -229 -341 -10 -110 -43 -179 -105 -221 -62 -42 -99 -51
-219 -51 l-111 0 -50 62 c-172 212 -310 499 -368 760 l-15 67 308 -154 c202
-102 319 -155 339 -155 72 0 144 57 157 126 5 30 -3 98 -22 180 -5 19 0 22 62
28 79 8 128 27 168 64 34 33 76 116 76 155 l0 28 128 -3 127 -3 0 -250z m1895
107 c43 -91 21 -219 -50 -287 l-30 -29 0 209 0 209 30 -29 c16 -15 39 -48 50
-73z m-1591 -1107 c21 -37 74 -75 103 -75 40 0 34 -99 -9 -150 -34 -41 -77
-62 -128 -62 -142 0 -214 171 -113 269 64 62 117 69 147 18z"/>
<path d="M2931 2394 c-15 -20 -21 -41 -21 -80 l0 -54 -174 0 c-160 0 -175 -2
-200 -21 -33 -26 -36 -79 -6 -109 19 -19 33 -20 281 -20 243 0 260 -1 255 -17
-3 -10 -10 -38 -16 -63 -15 -56 -59 -144 -68 -135 -4 3 -23 38 -42 78 -25 52
-42 74 -61 81 -38 13 -81 -11 -93 -51 -8 -29 -3 -45 42 -135 l51 -103 -22 -23
c-12 -13 -48 -39 -80 -59 -61 -37 -77 -57 -77 -97 0 -28 42 -66 72 -66 27 0
84 31 156 85 l63 48 27 -26 c47 -44 154 -107 182 -107 35 0 70 38 70 76 0 34
-19 54 -96 102 -88 56 -90 60 -50 127 37 60 68 144 87 233 l11 52 79 0 c44 0
89 5 100 11 48 25 44 105 -7 128 -15 7 -86 11 -179 11 l-155 0 0 60 c0 47 -4
64 -20 80 -30 30 -83 27 -109 -6z"/>
<path d="M4190 4452 l-30 -30 0 -131 c0 -121 -1 -131 -19 -131 -13 0 -24 16
-40 60 -29 78 -103 160 -178 196 -72 33 -163 43 -197 21 -67 -44 -26 -137 60
-137 13 0 41 -7 62 -15 123 -52 166 -207 86 -312 -37 -49 -78 -73 -141 -83
-91 -15 -126 -68 -82 -124 18 -22 28 -26 74 -26 78 0 155 32 221 92 52 48 104
129 104 163 0 9 9 15 25 15 l25 0 0 -109 c0 -94 3 -112 21 -135 26 -33 79 -36
109 -6 18 18 20 33 20 135 0 114 0 115 23 115 19 0 26 -8 37 -42 38 -129 159
-228 279 -228 42 0 53 4 70 26 27 34 26 57 -1 89 -16 17 -40 28 -73 34 -82 15
-145 100 -145 196 0 96 63 181 145 196 33 6 57 17 73 34 27 32 28 55 1 89 -17
22 -28 26 -70 26 -119 0 -243 -101 -280 -227 -10 -35 -17 -43 -36 -43 l-23 0
0 138 c0 152 -4 163 -62 177 -22 6 -33 1 -58 -23z"/>
<path d="M853 3062 c-15 -12 -60 -115 -143 -336 -109 -287 -120 -321 -110
-347 16 -38 64 -57 98 -38 28 16 34 24 62 92 l19 47 129 0 128 0 19 -56 c18
-53 53 -94 81 -94 28 0 63 24 74 50 10 24 -2 61 -107 341 -70 188 -126 323
-140 337 -27 27 -78 29 -110 4z m92 -346 l34 -86 -70 0 c-38 0 -69 4 -69 9 0
15 63 172 67 167 2 -2 19 -42 38 -90z"/>
</g>
</svg>
