<?xml version="1.0" encoding="utf-8"?>
<!-- Generator: Adobe Illustrator 27.5.0, SVG Export Plug-In . SVG Version: 6.00 Build 0)  -->
<svg version="1.1" xmlns="http://www.w3.org/2000/svg" xmlns:xlink="http://www.w3.org/1999/xlink" x="0px" y="0px"
	 viewBox="0 0 500 500" style="enable-background:new 0 0 500 500;" xml:space="preserve">
<g id="BACKGROUND">
	<g>
		<rect style="fill:#7DC0FA;" width="500" height="500"/>
		<g style="opacity:0.48;">
			<path style="fill:#3EACE6;" d="M500,173.991c-51.369,0.431-57.137-5.855-92.512-5.855c-35.627,0-69.159,10.098-89.418,10.63
				c-20.259,0.532-44.01-2.657-62.872-3.189c-18.861-0.531-28.642,4.783-21.656,4.252c6.986-0.531,25.149,0.531,52.393,4.252
				c27.245,3.72,80.336-8.504,108.279-7.441c22.205,0.845,70.437,9.408,105.785,10.756V173.991z"/>
			<path style="fill:#3EACE6;" d="M318.097,218.179c-11.838,0-11.246,7.268-3.382,8.504c16.911,2.657,48.478-3.189,80.045-7.441
				c31.567-4.252,59.752,0,60.879-2.657c1.127-2.657-32.694-3.189-67.644-4.252C353.047,211.27,330.148,218.179,318.097,218.179z"/>
			<path style="fill:#3EACE6;" d="M168.717,227.746c19.729,5.315,48.478-10.098,86.246-7.441
				c37.768,2.657,35.513-3.189,21.421-5.315c-14.092-2.126-41.714-2.126-64.262,3.189c-15.746,3.712-20.293,5.315-33.258,4.783
				C165.899,222.431,148.988,222.431,168.717,227.746z"/>
			<path style="fill:#3EACE6;" d="M8.009,150.709c23.675-3.313,113.867-8.098,143.743-2.945c29.876,5.154,51.297,1.104,86.81-2.577
				s98.647-3.313,149.38,4.417c37.006,5.639,78.8,6.964,112.058,4.556v-8.098c-8.459,0.584-18.817,0.965-31.449,0.965
				c-54.115,0-112.176-7.73-149.944-9.202c-37.768-1.472-121.195,6.626-135.851,4.049c-14.656-2.577-48.478-8.098-63.698-6.258
				c-11.85,1.433-70.514,7.328-119.058,5.525v10.468C2.672,151.374,5.354,151.08,8.009,150.709z"/>
			<path style="fill:#3EACE6;" d="M60.796,200.778c31.567,7.972,72.717-2.657,100.338-9.567c27.621-6.909,39.459,0,38.895-4.783
				c-0.564-4.783-55.806-8.504-82.3,2.657c-26.494,11.161-48.478,3.189-77.227-4.252C27.195,181.389,13.043,179.2,0,178.05v16.759
				C20.722,194.65,44.406,196.639,60.796,200.778z"/>
			<path style="fill:#3EACE6;" d="M0,68.445v5.59c55.069,1.846,117.64-6.816,162.511-9.117c51.84-2.657,37.355,7.972,58.701,9.035
				c21.346,1.063,61.75-3.72,129.599-10.098c53.265-5.007,103.24-3.133,149.189,2.789V50.974c-37.743-7.626-75.554-5.976-124.032-2
				c-51.839,4.252-121.213,14.882-141.796,4.783c-20.583-10.098-46.503-2.126-117.401,7.441C70.575,67.432,25.681,68.475,0,68.445z"
				/>
			<path style="fill:#3EACE6;" d="M364.02,95.806c-33.752-6.234-67.505-4.571-106.701,3.325
				c-39.196,7.896-81.115-0.831-123.033-4.571C99.214,91.43,56.889,101.674,0,98.534v19.368c14.92-0.571,35.851-2.056,51.539-5.888
				c27.22-6.649,86.559,3.325,114.322,6.649c27.764,3.325,52.806-3.325,93.636-4.571c40.829-1.247,87.647,10.389,130.11,0.831
				c30.867-6.948,77.838-5.331,110.393-1.855V86.845c-10.325,0.539-23.562,1.785-39.622,4.39
				C416.826,98.3,397.773,102.04,364.02,95.806z"/>
			<path style="fill:#3EACE6;" d="M462.107,466.382c-36.387-7.992-112.258-5.328-113.032-1.903
				c-0.774,3.425,15.484-1.522,53.419,3.425c26.925,3.511,63.209,8.359,97.506,8.84v-6.407
				C487.691,470.371,475.307,469.281,462.107,466.382z"/>
			<path style="fill:#3EACE6;" d="M121.93,309.987c43.405-4.783,86.81-15.944,127.396-5.846
				c40.586,10.098,75.536,12.224,110.485,4.252c34.949-7.972,54.679-3.189,99.774,5.846c16.317,3.269,29.813,4.863,40.415,5.573
				v-33.414c-33.684,4.389-81.927,6.379-113.695-2.454c-43.968-12.224-92.447,2.657-134.724,1.063
				c-42.277-1.594-68.207-10.098-96.956-5.846c-28.749,4.252-90.192,17.007-118.377,8.504C25.427,284.4,12.196,282.468,0,281.325
				v22.85C50.423,303.318,89.221,313.592,121.93,309.987z"/>
			<path style="fill:#3EACE6;" d="M138.572,44.099c10.92,0,10.374-4.961,3.12-5.805c-15.6-1.814-44.72,2.177-73.84,5.079
				c-29.12,2.903-55.12,0-56.16,1.814c-1.04,1.814,30.16,2.177,62.4,2.902C106.332,48.815,127.455,44.099,138.572,44.099z"/>
			<path style="fill:#3EACE6;" d="M424.67,434.838c23.017,0.769,53.039,0.769,18.013-6.918
				c-35.026-7.687-86.064,14.606-153.113,10.762c-67.049-3.844-63.046,4.612-38.028,7.687c25.019,3.075,74.055,3.075,114.084-4.612
				C393.58,436.388,401.653,434.069,424.67,434.838z"/>
			<path style="fill:#3EACE6;" d="M54.527,464.331c46.223-5.208,81.569-10.789,124.167-2.976s131.418,5.208,132.324,1.86
				c0.906-3.348-18.127,1.488-62.537-3.348c-44.41-4.836-110.572-12.277-161.326-6.697c-23.596,2.594-56.593,3.982-87.155,4.164
				v11.282C17.906,467.74,36.687,466.341,54.527,464.331z"/>
			<path style="fill:#3EACE6;" d="M0,23.073c45.27-11.398,65.626-17.29,101.267-7.096c36.147,10.339,72.294,7.582,114.272-5.514
				c41.977-13.096,86.87,1.378,131.763,7.582c39.367,5.44,87.254-13.499,152.699-5.695V0H0V23.073z"/>
			<path style="fill:#3EACE6;" d="M500,493.703c-32.313,2.892-69.519,2.439-96.062-6.432c-47.432-15.853-99.728,3.446-145.336,1.379
				c-45.607-2.068-73.58-13.096-104.593-7.582c-31.013,5.514-97.296,22.056-127.701,11.028c-7.954-2.885-17.116-4.967-26.308-6.47
				V500h500V493.703z"/>
			<path style="fill:#3EACE6;" d="M371.145,376.001c-75.502,2.75-132.974-13.201-172.415-7.701
				c-39.441,5.501-5.634,5.501,20.284,4.95c25.919-0.55,35.01,1.109,66.487,4.951c45.076,5.501,100.294,5.501,128.466,3.3
				C442.139,379.302,446.647,373.251,371.145,376.001z"/>
			<path style="fill:#3EACE6;" d="M281.987,413.439c55.233,2.126,177.241-9.567,198.675-5.846c5.103,0.886,11.804,2.013,19.338,3.18
				V396.05c-31.639-1.981-59.84,2.552-100.951,6.76c-51.936,5.315-144.266,4.783-218.46-6.378
				C120.069,387.327,50.78,386.006,0,391.308v11.711c14.606-1.619,34.88-2.867,62.703-2.867
				C141.843,400.152,226.754,411.313,281.987,413.439z"/>
			<path style="fill:#3EACE6;" d="M122.92,422.538c16.659-0.426,36.19,2.131,51.7,2.557c15.51,0.426,23.552-3.835,17.808-3.409
				c-5.744,0.426-20.68-0.426-43.083-3.409c-22.403-2.983-66.061,6.819-89.039,5.966C47.247,423.758,23.246,420.11,0,417.675v9.349
				c19.731,1.303,27.959,4.037,49.39,4.037C78.687,431.061,106.261,422.964,122.92,422.538z"/>
			<path style="fill:#3EACE6;" d="M109.529,355.214c41.15-10.098,87.373-14.882,137.542-8.504s80.045,11.161,95.829,10.098
				c15.784-1.063,5.073-11.693,43.405-9.035c31.433,2.179,74.613,10.07,113.695,9.325v-5.83c-19.536-0.217-49.319-1.64-79.873-7.216
				c-52.424-9.567-71.59-17.539-86.809-7.441c-15.22,10.098-66.516-0.532-104.848-4.783c-38.331-4.252-67.644-5.846-97.52,3.72
				c-21.001,6.725-85.73,3.733-130.95-1.407v25.562C33.813,361.826,81.935,361.986,109.529,355.214z"/>
			<path style="fill:#3EACE6;" d="M390.942,239.919c-50.733,11.161-113.867,11.693-149.38,6.378s-56.934-11.161-86.81-3.72
				c-29.876,7.441-120.068,0.531-143.743-4.252c-3.651-0.738-7.355-1.272-11.009-1.65v15.64
				c49.096-3.134,109.963,5.689,122.058,7.801c15.22,2.657,49.042-5.315,63.698-9.035c14.656-3.72,98.083,7.972,135.851,5.846
				c37.768-2.126,95.829-13.287,149.944-13.287c11.178,0,20.572,0.432,28.449,1.115v-11.711
				C467.251,229.984,426.843,232.02,390.942,239.919z"/>
		</g>
		<path style="opacity:0.8;fill:#BAF8FF;" d="M127.378,61.326c0,2.074-1.681,3.756-3.756,3.756c-2.074,0-3.756-1.681-3.756-3.756
			s1.681-3.756,3.756-3.756C125.696,57.571,127.378,59.252,127.378,61.326z"/>
		
			<ellipse transform="matrix(0.1489 -0.9889 0.9889 0.1489 155.886 646.2469)" style="opacity:0.8;fill:#BAF8FF;" cx="453.36" cy="232.566" rx="7.511" ry="7.511"/>
		<circle style="opacity:0.8;fill:#BAF8FF;" cx="55.36" cy="226.055" r="7.511"/>
		
			<ellipse transform="matrix(0.7071 -0.7071 0.7071 0.7071 42.3834 260.7789)" style="opacity:0.8;fill:#BAF8FF;" cx="335.98" cy="79.228" rx="7.511" ry="7.511"/>
		
			<ellipse transform="matrix(0.7071 -0.7071 0.7071 0.7071 -81.6095 93.4337)" style="opacity:0.8;fill:#BAF8FF;" cx="71.98" cy="145.228" rx="7.511" ry="7.511"/>
		<circle style="opacity:0.8;fill:#BAF8FF;" cx="370.266" cy="162.563" r="3.847"/>
		<circle style="opacity:0.8;fill:#BAF8FF;" cx="446.36" cy="289.055" r="3.847"/>
		<circle style="opacity:0.8;fill:#BAF8FF;" cx="34.36" cy="204.055" r="2.645"/>
		<circle style="opacity:0.8;fill:#BAF8FF;" cx="392.357" cy="418.55" r="2.645"/>
		<circle style="opacity:0.8;fill:#BAF8FF;" cx="428.36" cy="259.41" r="2.645"/>
		<circle style="opacity:0.8;fill:#BAF8FF;" cx="195.71" cy="436.248" r="2.645"/>
		<circle style="opacity:0.8;fill:#BAF8FF;" cx="126.005" cy="464.055" r="2.645"/>
		<circle style="opacity:0.8;fill:#BAF8FF;" cx="297.36" cy="40.41" r="2.645"/>
		<circle style="opacity:0.8;fill:#BAF8FF;" cx="308.052" cy="461.64" r="2.645"/>
		<circle style="opacity:0.8;fill:#BAF8FF;" cx="138.36" cy="111.219" r="2.164"/>
		<circle style="opacity:0.8;fill:#BAF8FF;" cx="85.849" cy="398.555" r="7.138"/>
		<path style="opacity:0.8;fill:#BAF8FF;" d="M100.218,360.074c0,1.594-1.292,2.885-2.885,2.885c-1.594,0-2.885-1.292-2.885-2.885
			s1.292-2.885,2.885-2.885C98.926,357.188,100.218,358.48,100.218,360.074z"/>
		<circle style="opacity:0.8;fill:#BAF8FF;" cx="400.36" cy="58.055" r="2.886"/>
		<circle style="opacity:0.8;fill:#BAF8FF;" cx="351.36" cy="374.055" r="4.869"/>
		<circle style="opacity:0.8;fill:#BAF8FF;" cx="252.36" cy="404.055" r="4.869"/>
		<path style="opacity:0.8;fill:#BAF8FF;" d="M210.474,89.94c0,1.594,1.292,2.885,2.886,2.885c1.594,0,2.885-1.292,2.885-2.885
			c0-1.594-1.292-2.885-2.885-2.885C211.766,87.055,210.474,88.347,210.474,89.94z"/>
	</g>
</g>
<g id="OBJECTS">
	<g>
		<g>
			<g>
				<g>
					
						<ellipse transform="matrix(0.1216 -0.9926 0.9926 0.1216 -78.0985 310.3556)" style="fill:#FFFFFF;" cx="136.308" cy="199.305" rx="36.966" ry="36.966"/>
					
						<ellipse transform="matrix(0.2319 -0.9727 0.9727 0.2319 -96.7218 276.121)" style="fill:#262324;" cx="126.479" cy="199.305" rx="21.499" ry="21.499"/>
					<g>
						<path style="fill:#FFFFFF;" d="M140.589,192.899c0,3.3-2.675,5.974-5.975,5.974c-3.299,0-5.974-2.675-5.974-5.974
							c0-3.3,2.675-5.974,5.974-5.974C137.914,186.925,140.589,189.6,140.589,192.899z"/>
						<path style="fill:#FFFFFF;" d="M137.993,205.252c0,1.866-1.513,3.379-3.379,3.379c-1.866,0-3.379-1.513-3.379-3.379
							c0-1.866,1.513-3.379,3.379-3.379C136.481,201.873,137.993,203.386,137.993,205.252z"/>
					</g>
				</g>
				<path style="fill:#262324;" d="M135.825,157.011c18.56,0,30.939,12.439,30.939,12.439c-5.434-9.789-17.182-16.569-30.806-16.569
					c-13.624,0-25.372,6.78-30.807,16.569C105.151,169.449,117.265,157.011,135.825,157.011z"/>
			</g>
			<path style="fill:#DEF1FF;" d="M277.417,309.521c-18.833-6.093-25.497-20.835-33.692-24.32
				c-19.148-8.141-32.673,15.31-100.678,0.575c-34.604-7.498-41.438,7.27-41.438,7.27c16.017,31.766,47.865,67.901,103.338,72.188
				c74.721,5.774,125.002-47.477,142.868-70.162C336.237,304.172,309.976,320.055,277.417,309.521z"/>
			<path style="opacity:0.04;fill:#00455C;" d="M202.352,355.871c-34.598-2.477-60.507-15.013-79.428-31.263
				c18.301,20.576,44.851,37.754,82.023,40.627c70.253,5.429,118.899-41.318,139.314-65.782
				C320.097,323.849,270.961,360.783,202.352,355.871z"/>
			<path style="opacity:0.4;fill:#C2D8E8;" d="M111.812,310.354c1.41,2.067,2.89,4.124,4.444,6.163
				c32.997,11.78,67.176-7.904,67.176-7.904C141.268,321.918,112.102,310.469,111.812,310.354z"/>
			<path style="fill:#D6EEFF;" d="M103.075,290.503c0,0-4.083,2.767-1.308,9.587c3.678,9.038,22.56,29.591,84.339,8.011
				l-5.031-4.635L103.075,290.503z"/>
			<path style="fill:#262324;" d="M235.008,281.301c-1.264,0-33.033,30.548-89.559,28.99c-30.071-0.829-45.111-10.551-43.839-17.244
				c1.848-9.726,39.989-15.119,39.989-15.119L235.008,281.301z"/>
			<path style="fill:#A6345C;" d="M229.246,281.093l-38.3-1.383c-1.72,0.278-3.455,0.594-5.204,0.954
				c-25.654,5.277-45.327,17.704-47.608,29.227c2.333,0.191,4.766,0.33,7.316,0.4c49.475,1.363,79.984-21.868,87.673-27.685
				C231.92,282.052,230.628,281.546,229.246,281.093z"/>
			<path style="fill:#FFFFFF;" d="M152.087,285.534c0,0,2.553,11.238,5.152,11.884c2.599,0.646,10.115-8.09,10.115-8.09
				L152.087,285.534z"/>
			<path style="fill:#FFFFFF;" d="M177.765,289.186c0,0,4.886,10.438,7.563,10.516c2.677,0.078,8.162-10.058,8.162-10.058
				L177.765,289.186z"/>
			<path style="fill:#FFFFFF;" d="M127.984,278.891c0,0,2.507,11.249,5.103,11.905c2.596,0.656,10.148-8.049,10.148-8.049
				L127.984,278.891z"/>
			<path style="fill:#FFFFFF;" d="M106.555,267.311c0,0-0.129,11.524,2.249,12.756c2.378,1.232,11.718-5.518,11.718-5.518
				L106.555,267.311z"/>
			<path style="fill:#24619C;" d="M315.727,152.238c1.997-12.653,1.237-15.112-6.856-16.835
				c-33.79-7.192-109.554,22.287-114.269,72.694l119.868,10.805C306.716,192.752,314.546,159.724,315.727,152.238z"/>
			<path style="fill:#2769A8;" d="M381.397,264.066c0,0,22.809-17.941,23.67-71.427c0,0-16.424-1.323-30.428,11.227
				c-18.154,16.269-21.337,46.931-21.337,46.931s-39.653-60.431-112.509-67.754c-72.856-7.323-151.001,48.511-152.18,61.979
				c-1.074,12.268,19.831,33.258,54.435,40.755c68.005,14.734,81.53-8.716,100.678-0.575c8.195,3.484,14.858,18.227,33.692,24.32
				c32.559,10.534,58.821-5.349,70.398-14.448c4.765-6.051,7.233-9.935,7.233-9.935s5.352,25.625,31.633,28.853
				c16.69,2.05,24.746-6.039,24.746-6.039S406.333,280.615,381.397,264.066z"/>
			<path style="fill:#2769A8;" d="M322.337,341.207c-1.459-5.375-6.507-25.913-0.971-44.628l-58.851,0.774
				c0.344,37.249,41.448,63.387,60.706,60.128C327.833,356.7,323.796,346.581,322.337,341.207z"/>
			<g>
				<g>
					
						<ellipse transform="matrix(0.0993 -0.9951 0.9951 0.0993 -16.5461 385.0836)" style="fill:#FFFFFF;" cx="204.43" cy="201.681" rx="36.966" ry="36.966"/>
					
						<ellipse transform="matrix(0.158 -0.9874 0.9874 0.158 -35.2922 361.9744)" style="fill:#262324;" cx="194.602" cy="201.681" rx="21.499" ry="21.499"/>
					<g>
						<path style="fill:#FFFFFF;" d="M208.711,195.275c0,3.299-2.675,5.974-5.975,5.974c-3.299,0-5.974-2.675-5.974-5.974
							c0-3.3,2.675-5.975,5.974-5.975C206.037,189.301,208.711,191.976,208.711,195.275z"/>
						<path style="fill:#FFFFFF;" d="M206.116,207.628c0,1.866-1.513,3.379-3.379,3.379c-1.866,0-3.379-1.513-3.379-3.379
							c0-1.866,1.513-3.379,3.379-3.379C204.603,204.25,206.116,205.762,206.116,207.628z"/>
					</g>
				</g>
				<path style="fill:#262324;" d="M203.947,159.387c18.56,0,30.94,12.439,30.94,12.439c-5.434-9.789-17.182-16.57-30.807-16.57
					c-13.624,0-25.372,6.78-30.806,16.57C173.274,171.826,185.388,159.387,203.947,159.387z"/>
			</g>
			<path style="opacity:0.2;fill:#262324;" d="M110.895,259.85c-2.165,0-4.07-1.99-5.186-5.008c0.787,3.785,2.808,6.485,5.186,6.485
				c2.377,0,4.399-2.7,5.186-6.486C114.965,257.859,113.06,259.85,110.895,259.85z"/>
			<g>
				<path style="opacity:0.4;fill:#262324;" d="M115.41,249.514c0,4.218-1.9,7.638-4.243,7.638c-2.343,0-4.243-3.419-4.243-7.638
					c0-4.218,1.9-7.638,4.243-7.638C113.511,241.876,115.41,245.296,115.41,249.514z"/>
				<g>
					<path style="opacity:0.2;fill:#262324;" d="M133.17,266.89c-2.165,0-4.07-1.99-5.186-5.008
						c0.787,3.785,2.808,6.485,5.186,6.485c2.378,0,4.399-2.7,5.186-6.486C137.24,264.899,135.335,266.89,133.17,266.89z"/>
					<path style="opacity:0.4;fill:#262324;" d="M137.209,256.769c0,4.218-1.9,7.638-4.243,7.638c-2.344,0-4.243-3.42-4.243-7.638
						c0-4.218,1.9-7.638,4.243-7.638C135.309,249.132,137.209,252.551,137.209,256.769z"/>
				</g>
			</g>
			<g>
				<path style="opacity:0.28;fill:#262324;" d="M260.397,249.65c0,0,7.136,13.54,7.136,19.911c0,6.371-4.995,17.522-4.995,17.522
					s9.634-12.345,9.634-17.92C272.172,263.588,260.397,249.65,260.397,249.65z"/>
				<path style="opacity:0.28;fill:#262324;" d="M270.774,252.719c0,0,5.966,11.32,5.966,16.647c0,5.327-4.177,14.649-4.177,14.649
					s8.055-10.321,8.055-14.982C280.618,264.372,270.774,252.719,270.774,252.719z"/>
				<path style="opacity:0.28;fill:#262324;" d="M280.185,256.555c0,0,4.504,8.545,4.504,12.566c0,4.021-3.153,11.058-3.153,11.058
					s6.08-7.791,6.08-11.31C287.616,265.351,280.185,256.555,280.185,256.555z"/>
			</g>
			<path style="opacity:0.16;fill:#D6EEFF;" d="M270.24,311.064c0,0,7.427,35.615,50.737,41.991
				C320.977,353.055,287.655,345.58,270.24,311.064z"/>
		</g>
		<path style="opacity:0.16;fill:#D6EEFF;" d="M360.029,288.379c0,0,16.382,32.85,48.545,18.489
			C408.574,306.868,380.667,315.484,360.029,288.379z"/>
		<path style="opacity:0.16;fill:#D6EEFF;" d="M378.792,258.112c0,0,22.119-18.469,20.938-58.346
			C399.73,199.766,398.527,225.417,378.792,258.112z"/>
		<path style="opacity:0.16;fill:#D6EEFF;" d="M246.846,191.127c0,0,53.162,1.748,97.525,59.353
			C344.371,250.48,306.974,206.893,246.846,191.127z"/>
		<path style="opacity:0.1;fill:#D6EEFF;" d="M235.697,161.393c0,0,15.749-11.607,38.847-17.473
			c23.098-5.866,36.228-2.927,37.212,2.484c0.842,4.63-5.681,16.581-5.681,16.581s4.707-12.799-4.361-16.701
			C279.563,136.751,235.697,161.393,235.697,161.393z"/>
		<path style="fill:#D6EEFF;" d="M342.634,148.322"/>
	</g>
</g>
</svg>
